<svg width="28" height="23" viewBox="0 0 28 23" fill="none" xmlns="http://www.w3.org/2000/svg">
<path fill-rule="evenodd" clip-rule="evenodd" d="M26.544 0H1.45444C0.653333 0 0 0.6315 0 1.404V1.596C0 2.3685 0.653333 3 1.45444 3H26.544C27.3451 3 28 2.3685 28 1.596V1.404C28 0.6315 27.3451 0 26.544 0Z" fill="#262626"/>
<path fill-rule="evenodd" clip-rule="evenodd" d="M26.544 10H1.45444C0.653333 10 0 10.6315 0 11.404V11.596C0 12.3685 0.653333 13 1.45444 13H26.544C27.3451 13 28 12.3685 28 11.596V11.404C28 10.6315 27.3451 10 26.544 10Z" fill="#262626"/>
<path fill-rule="evenodd" clip-rule="evenodd" d="M26.6629 20H9.33571C8.6 20 8 20.6315 8 21.404V21.596C8 22.3685 8.6 23 9.33571 23H26.6629C27.3986 23 28 22.3685 28 21.596V21.404C28 20.6315 27.3986 20 26.6629 20Z" fill="#262626"/>
</svg>
